# xmcd
#
# Track frame offsets: 
#        150
#        15076
#        34228
#        47242
#        69181
#        86344
#        105336
#        119961
#        138663
#        154838
#        173979
#        196930
#        211442
#        228550
#        243267
#        258992
#
# Disc length: 3667 seconds
#
# Revision: 0
# Processed by: cddbd v1.5.2PL0 Copyright (c) Steve Scherf et al.
# Submitted via: ExactAudioCopyFreeDBPlugin 1.0
#
DISCID=d70e5110
DTITLE=蔡琴 - DTS 蔡琴常青树
DYEAR=2008
DGENRE=Acid
TTITLE0=被遗忘的时光
TTITLE1=你的眼神
TTITLE2=想你的时候
TTITLE3=抉择
TTITLE4=跟我说爱我
TTITLE5=意难忘
TTITLE6=秦淮河畔
TTITLE7=读你
TTITLE8=未识绮萝乡
TTITLE9=我的思念
TTITLE10=恨不相逢未嫁时
TTITLE11=今宵多珍重
TTITLE12=怎么能
TTITLE13=出塞曲
TTITLE14=我有一段情
TTITLE15=重相逢
EXTD=
EXTT0=
EXTT1=
EXTT2=
EXTT3=
EXTT4=
EXTT5=
EXTT6=
EXTT7=
EXTT8=
EXTT9=
EXTT10=
EXTT11=
EXTT12=
EXTT13=
EXTT14=
EXTT15=
PLAYORDER=
